<?xml version="1.0" encoding="utf-8"?>
<!-- Generator: Adobe Illustrator 26.2.1, SVG Export Plug-In . SVG Version: 6.00 Build 0)  -->
<svg version="1.1" id="Layer_1" xmlns="http://www.w3.org/2000/svg" xmlns:xlink="http://www.w3.org/1999/xlink" x="0px" y="0px"
	 viewBox="0 0 500 340" style="enable-background:new 0 0 500 340;" xml:space="preserve">
<style type="text/css">
	.st0{fill:#E9D200;}
	.st1{display:none;fill:#2AFFA8;stroke:#FFFFFF;stroke-width:0.25;stroke-miterlimit:10;}
	.st2{fill:#28B893;}
	.st3{fill:#5C5FFF;stroke:#FFFFFF;stroke-miterlimit:10;}
	.st4{fill:#253C97;stroke:#FFFFFF;stroke-width:0.5;stroke-miterlimit:10;}
	.st5{font-family:'CourierNewPS-BoldMT';}
	.st6{font-size:58px;}
</style>
<polygon class="st0" points="190.2,231.5 190.2,119 235.8,199.3 "/>
<polygon class="st1" points="127.5,227.5 127.5,63.5 200,180.5 "/>
<polygon class="st0" points="91,231.5 91,54 169.1,180.6 "/>
<path class="st2" d="M52.5,221h187h103c10,0,15,5,15,15v15c0,10-5,15-15,15h-200c-16.7,0-34-5-52-15L52.5,221z"/>
<path class="st2" d="M265.7,188h58.6c3.7,0,6.7,1.1,6.7,2.4v28.2c0,1.3-3,2.4-6.7,2.4h-58.6c-3.7,0-6.7-1.1-6.7-2.4v-28.2
	C259,189.1,262,188,265.7,188z"/>
<rect x="291" y="164" class="st2" width="16" height="34.5"/>
<path class="st3" d="M31,245.1c65.8,25.9,153.6,22.2,219.5,3.7S404.1,234,448,256.2V271H31V245.1z"/>
<text transform="matrix(1 0 0 1 15.6533 318.2559)" class="st4 st5 st6">ContainerShip</text>
</svg>
